<?xml version="1.0" ?><svg viewBox="0 0 20.727 22.417" xmlns="http://www.w3.org/2000/svg"><g data-name="Layer 2" id="Layer_2"><g data-name="Layer 1" id="Layer_1-2"><path d="M13.27,8.105,11.732,6.567a.351.351,0,0,0-.481,0L8.43,9.389,7.2,8.155a.343.343,0,0,0-.481,0L5.178,9.693a.338.338,0,0,0,0,.48L8.19,13.185a.338.338,0,0,0,.48,0l4.6-4.6A.34.34,0,0,0,13.27,8.105Zm-4.84,4.36L5.9,9.933,6.956,8.876c.216.166,1.285,1.419,1.474,1.334a.339.339,0,0,0,.24-.1l2.822-2.822,1.057,1.057ZM18.4,15.07c.229,3.126.583,4.57-3.53,4.59a.725.725,0,0,0-.819.769v1.648a.34.34,0,0,1-.68,0V20.429a1.381,1.381,0,0,1,1.5-1.448c1.614,0,2.765-.343,2.862-.852A13.253,13.253,0,0,0,17.7,14.9a.34.34,0,0,1,.214-.362,15.342,15.342,0,0,0,1.833-.87c.529-.326.258-.633.011-1a8.771,8.771,0,0,1-2-3.4C17.4-1.937,1.47-2.215.7,8.962c-.274,3.1,2.074,5.733,3.341,8.244a10.5,10.5,0,0,1,.661,3.19,1.463,1.463,0,0,0,1.466,1.341H7.412a1.474,1.474,0,0,0,1.472-1.472V16.68a1.446,1.446,0,0,0-1.1-1.422A6.229,6.229,0,1,1,13.543,4.71a6.272,6.272,0,0,1-2.2,10.347.34.34,0,0,1-.231-.639C17,12.228,15.3,3.459,9.007,3.652A5.635,5.635,0,0,0,3.679,8.98,5.563,5.563,0,0,0,7.939,14.6,2.12,2.12,0,0,1,9.563,16.68v3.585a2.154,2.154,0,0,1-2.151,2.152H6.171a2.139,2.139,0,0,1-2.143-1.961,9.985,9.985,0,0,0-.6-2.969c-1.352-2.58-3.688-5.343-3.4-8.543C.191,1.093,9.9-2.953,15.549,2.512a9.121,9.121,0,0,1,2.877,6.644,8.734,8.734,0,0,0,1.846,3.068C21.653,13.9,19.56,14.551,18.4,15.07Z" data-name="think positive" id="think_positive"/></g></g></svg>