<?xml version="1.0" encoding="iso-8859-1"?>
<!-- Generator: Adobe Illustrator 18.0.0, SVG Export Plug-In . SVG Version: 6.00 Build 0)  -->
<!DOCTYPE svg PUBLIC "-//W3C//DTD SVG 1.1//EN" "http://www.w3.org/Graphics/SVG/1.1/DTD/svg11.dtd">
<svg version="1.1" id="Capa_1" xmlns="http://www.w3.org/2000/svg" xmlns:xlink="http://www.w3.org/1999/xlink" x="0px" y="0px"
	 viewBox="0 0 426.854 426.854" style="enable-background:new 0 0 426.854 426.854;" xml:space="preserve">
<path d="M380.044,2.321h-39.21L60.736,282.409L0,415.525l23.852,9.008l122.915-56.094L426.854,88.352v-39.22L380.044,2.321z
	 M134.409,344.396l229.46-229.46l8.302,8.302l-229.46,229.46L134.409,344.396z M124.509,334.496l-29.822-29.822l229.46-229.46
	l29.822,29.822L124.509,334.496z M84.787,294.774l-8.309-8.308L305.943,57.009l8.304,8.304L84.787,294.774z M68.761,298.548
	l61.867,61.868l-55.112,25.151L35.89,370.592L68.761,298.548z M23.344,409.376l-4.393-1.659l11.115-24.36l27.511,10.396
	L23.344,409.376z M412.854,82.553l-30.784,30.784L315.843,47.11l30.79-30.788h27.612l38.609,38.61V82.553z"/>
<g>
</g>
<g>
</g>
<g>
</g>
<g>
</g>
<g>
</g>
<g>
</g>
<g>
</g>
<g>
</g>
<g>
</g>
<g>
</g>
<g>
</g>
<g>
</g>
<g>
</g>
<g>
</g>
<g>
</g>
</svg>
