<?xml version="1.0" encoding="iso-8859-1"?>
<!-- Generator: Adobe Illustrator 19.0.0, SVG Export Plug-In . SVG Version: 6.00 Build 0)  -->
<svg version="1.1" id="Layer_1" xmlns="http://www.w3.org/2000/svg" xmlns:xlink="http://www.w3.org/1999/xlink" x="0px" y="0px"
	 viewBox="0 0 280.277 280.277" style="enable-background:new 0 0 280.277 280.277;" xml:space="preserve">
<g>
	<path style="fill:#324D5B;" d="M125.605,114.032H32.102c-17.633,0-31.923,14.22-31.923,31.757v75.896
		c0,17.554,14.299,31.774,31.923,31.774h25.929c0.149-0.053,27.994,27.259,29.342,26.813c0.07-0.07,0.28-26.813-0.026-26.813h38.259
		c17.642,0,31.914-14.22,31.914-31.774v-75.896C157.519,128.253,143.238,114.032,125.605,114.032z"/>
	<path style="fill:#2494BC;" d="M248.187,0H128.422c-17.633,0-31.906,14.29-31.906,31.923v93.774
		c0,17.615,14.281,31.906,31.906,31.906h55.76c-0.306,0-0.088,26.883-0.018,26.953c1.339,0.446,29.184-27.005,29.333-26.953h34.688
		c17.633,0,31.914-14.281,31.914-31.906V31.923C280.101,14.29,265.82,0,248.187,0z"/>
	<path style="fill:#FFFFFF;" d="M144.515,70.173c-7.246,0-13.126,5.881-13.126,13.126s5.881,13.126,13.126,13.126
		c7.246,0,13.126-5.872,13.126-13.126C157.642,76.054,151.761,70.173,144.515,70.173z M188.27,70.173
		c-7.246,0-13.126,5.881-13.126,13.126s5.881,13.126,13.126,13.126s13.126-5.872,13.126-13.126
		C201.396,76.054,195.515,70.173,188.27,70.173z M232.024,70.173c-7.246,0-13.126,5.881-13.126,13.126s5.881,13.126,13.126,13.126
		c7.246,0,13.126-5.872,13.126-13.126C245.15,76.054,239.27,70.173,232.024,70.173z"/>
</g>
<g>
</g>
<g>
</g>
<g>
</g>
<g>
</g>
<g>
</g>
<g>
</g>
<g>
</g>
<g>
</g>
<g>
</g>
<g>
</g>
<g>
</g>
<g>
</g>
<g>
</g>
<g>
</g>
<g>
</g>
</svg>
