<?xml version="1.0" ?><svg viewBox="0 0 22.434 22.392" xmlns="http://www.w3.org/2000/svg"><g data-name="Layer 2" id="Layer_2"><g data-name="Layer 1" id="Layer_1-2"><path d="M11.326,10.592V8.327a1.472,1.472,0,0,1,2.944,0,.34.34,0,0,1-.679,0,.793.793,0,1,0-1.586,0v2.265a.793.793,0,0,0,1.586,0,.34.34,0,1,1,.679,0,1.472,1.472,0,0,1-2.944,0Zm8.78,4.454c.227,3.117.589,4.57-3.531,4.59a.725.725,0,0,0-.819.769v1.648a.34.34,0,0,1-.679,0V20.405a1.381,1.381,0,0,1,1.5-1.448c1.616,0,2.766-.343,2.862-.852a13.284,13.284,0,0,0-.035-3.233.338.338,0,0,1,.214-.361,15.512,15.512,0,0,0,1.833-.871c.527-.326.26-.633.01-1a8.169,8.169,0,0,1-2.006-3.465C19.394.464,7.907-2.532,3.574,4.889H14.881a1.669,1.669,0,0,1,1.654,1.654v9.914a.342.342,0,0,1-.507.3l-3.543-2a4.05,4.05,0,0,0-1.989-.523H4.026A33.215,33.215,0,0,1,5.75,17.182,15.949,15.949,0,0,1,6.5,22.049a.34.34,0,0,1-.68.007,15.662,15.662,0,0,0-.691-4.594c-.406-.9-1.3-2.22-1.9-3.236H1.654A1.669,1.669,0,0,1,0,12.572V6.543A1.67,1.67,0,0,1,1.654,4.889H2.8C7.281-3.478,19.97-.479,20.133,9.131A8.712,8.712,0,0,0,21.978,12.2C23.361,13.876,21.266,14.525,20.106,15.046ZM1.654,5.569a.981.981,0,0,0-.974.974v6.029a.979.979,0,0,0,.974.974H10.5c1.662-.124,3.943,1.614,5.359,2.329V6.543a.986.986,0,0,0-.974-.974Zm.611,6.155v-3.4a1.472,1.472,0,0,1,2.944,0v3.4a.34.34,0,1,1-.679,0V10.176H2.945v1.548a.34.34,0,0,1-.68,0ZM2.945,9.5H4.53V8.327a.793.793,0,0,0-1.585,0ZM6.8,11.724V7.2a.34.34,0,0,1,.339-.341h.982A1.248,1.248,0,0,1,9.363,8.1a1.766,1.766,0,0,1-.248,1.19,1.481,1.481,0,0,1,.625,1.527,1.247,1.247,0,0,1-1.246,1.246H7.135A.339.339,0,0,1,6.8,11.724Zm.679-2.6c.466,0,1.191.1,1.208-.567.025-.448.02-1-.566-1.019H7.475Zm0,2.264c.5-.048,1.565.237,1.585-.566v-.453c-.018-.8-1.083-.519-1.585-.566Z" id="learning"/></g></g></svg>